<svg xmlns="http://www.w3.org/2000/svg" xmlns:xlink="http://www.w3.org/1999/xlink" width="111" zoomAndPan="magnify" viewBox="0 0 83.25 40.499999" height="54" preserveAspectRatio="xMidYMid meet" version="1.0"><defs><g/><clipPath id="d584deac34"><path d="M 0.210938 0.5625 L 39 0.5625 L 39 39 L 0.210938 39 Z M 0.210938 0.5625 " clip-rule="nonzero"/></clipPath><clipPath id="6b39a3f9f8"><path d="M 43 0.5625 L 81.703125 0.5625 L 81.703125 39 L 43 39 Z M 43 0.5625 " clip-rule="nonzero"/></clipPath><clipPath id="32a9253264"><path d="M 21 0.5625 L 61 0.5625 L 61 39 L 21 39 Z M 21 0.5625 " clip-rule="nonzero"/></clipPath></defs><g clip-path="url(#d584deac34)"><path fill="#ef4dc1" d="M 19.527344 0.648438 C 30.195312 0.648438 38.84375 9.230469 38.84375 19.824219 C 38.84375 30.414062 30.195312 39 19.527344 39 C 8.859375 39 0.210938 30.414062 0.210938 19.824219 C 0.210938 9.230469 8.859375 0.648438 19.527344 0.648438 Z M 19.527344 0.648438 " fill-opacity="1" fill-rule="nonzero"/></g><g clip-path="url(#6b39a3f9f8)"><path fill="#0ec6e5" d="M 62.386719 0.648438 C 73.058594 0.648438 81.703125 9.230469 81.703125 19.824219 C 81.703125 30.414062 73.058594 39 62.386719 39 C 51.71875 39 43.074219 30.414062 43.074219 19.824219 C 43.074219 9.230469 51.71875 0.648438 62.386719 0.648438 Z M 62.386719 0.648438 " fill-opacity="1" fill-rule="nonzero"/></g><g clip-path="url(#32a9253264)"><path fill="#8419bc" d="M 40.960938 0.648438 C 51.632812 0.648438 60.277344 9.230469 60.277344 19.824219 C 60.277344 30.414062 51.632812 39 40.960938 39 C 30.292969 39 21.636719 30.414062 21.636719 19.824219 C 21.636719 9.230469 30.292969 0.648438 40.960938 0.648438 Z M 40.960938 0.648438 " fill-opacity="1" fill-rule="nonzero"/></g><path fill="#ef4dc1" d="M 30.238281 3.863281 C 35.425781 7.300781 38.84375 13.167969 38.84375 19.824219 C 38.84375 26.476562 35.425781 32.347656 30.238281 35.78125 C 25.054688 32.347656 21.636719 26.476562 21.636719 19.824219 C 21.636719 13.167969 25.054688 7.300781 30.238281 3.863281 Z M 30.238281 3.863281 " fill-opacity="0.498" fill-rule="nonzero"/><path fill="#0ec6e5" d="M 51.675781 3.863281 C 56.863281 7.300781 60.277344 13.167969 60.277344 19.824219 C 60.277344 26.476562 56.863281 32.347656 51.675781 35.78125 C 46.488281 32.347656 43.074219 26.476562 43.074219 19.824219 C 43.074219 13.167969 46.488281 7.300781 51.675781 3.863281 Z M 51.675781 3.863281 " fill-opacity="0.498" fill-rule="nonzero"/><g fill="#ffffff" fill-opacity="1"><g transform="translate(0.951207, 26.500047)"><g><path d="M 13.40625 0 L 10.078125 0 L 10.078125 -5.09375 L 4.640625 -5.09375 L 4.640625 0 L 1.3125 0 L 1.3125 -13.109375 L 4.640625 -13.109375 L 4.640625 -7.71875 L 10.078125 -7.71875 L 10.078125 -13.109375 L 13.40625 -13.109375 Z M 13.40625 0 "/></g></g></g><g fill="#ffffff" fill-opacity="1"><g transform="translate(15.672721, 26.500047)"><g><path d="M 4.640625 0 L 1.3125 0 L 1.3125 -13.109375 L 4.640625 -13.109375 Z M 4.640625 0 "/></g></g></g><g fill="#ffffff" fill-opacity="1"><g transform="translate(21.628749, 26.500047)"><g><path d="M 11.328125 -10.4375 L 7.375 -10.4375 L 7.375 0 L 4.046875 0 L 4.046875 -10.4375 L 0.125 -10.4375 L 0.125 -13.140625 L 11.328125 -13.140625 Z M 11.328125 -10.4375 "/></g></g></g><g fill="#ffffff" fill-opacity="1"><g transform="translate(33.072573, 26.500047)"><g><path d="M 13.40625 0 L 10.078125 0 L 10.078125 -5.09375 L 4.640625 -5.09375 L 4.640625 0 L 1.3125 0 L 1.3125 -13.109375 L 4.640625 -13.109375 L 4.640625 -7.71875 L 10.078125 -7.71875 L 10.078125 -13.109375 L 13.40625 -13.109375 Z M 13.40625 0 "/></g></g></g><g fill="#ffffff" fill-opacity="1"><g transform="translate(47.794087, 26.500047)"><g><path d="M 4.640625 0 L 1.3125 0 L 1.3125 -13.109375 L 4.640625 -13.109375 Z M 4.640625 0 "/></g></g></g><g fill="#ffffff" fill-opacity="1"><g transform="translate(53.750116, 26.500047)"><g><path d="M 8.53125 0 L 5.078125 0 L -0.015625 -13.109375 L 3.546875 -13.109375 L 6.890625 -3.46875 L 10.25 -13.109375 L 13.671875 -13.109375 Z M 8.53125 0 "/></g></g></g><g fill="#ffffff" fill-opacity="1"><g transform="translate(67.404042, 26.500047)"><g><path d="M 11.578125 -10.484375 L 4.640625 -10.484375 L 4.640625 -7.890625 L 10.90625 -7.890625 L 10.90625 -5.265625 L 4.640625 -5.265625 L 4.640625 -2.625 L 11.78125 -2.625 L 11.78125 0 L 1.3125 0 L 1.3125 -13.109375 L 11.578125 -13.109375 Z M 11.578125 -10.484375 "/></g></g></g></svg>